<?xml version="1.0" encoding="UTF-8" standalone="no"?>
<!-- Created with Inkscape (http://www.inkscape.org/) -->

<svg
   xmlns:dc="http://purl.org/dc/elements/1.1/"
   xmlns:cc="http://creativecommons.org/ns#"
   xmlns:rdf="http://www.w3.org/1999/02/22-rdf-syntax-ns#"
   xmlns:svg="http://www.w3.org/2000/svg"
   xmlns="http://www.w3.org/2000/svg"
   xmlns:sodipodi="http://sodipodi.sourceforge.net/DTD/sodipodi-0.dtd"
   xmlns:inkscape="http://www.inkscape.org/namespaces/inkscape"
   id="svg4977"
   version="1.1"
   inkscape:version="0.91 r13725"
   xml:space="preserve"
   width="728.625"
   height="259.67499"
   viewBox="0 0 728.625 259.67499"
   sodipodi:docname="bce_rec_004_h_annotated.svg"><metadata
     id="metadata4983"><rdf:RDF><cc:Work
         rdf:about=""><dc:format>image/svg+xml</dc:format><dc:type
           rdf:resource="http://purl.org/dc/dcmitype/StillImage" /><dc:title></dc:title></cc:Work></rdf:RDF></metadata><defs
     id="defs4981"><marker
       inkscape:stockid="Arrow1Mstart"
       orient="auto"
       refY="0"
       refX="0"
       id="marker5165"
       style="overflow:visible"
       inkscape:isstock="true"
       inkscape:collect="always"><path
         id="path5167-5"
         d="M 0,0 5,-5 -12.5,0 5,5 0,0 Z"
         style="fill:#000000;fill-opacity:1;fill-rule:evenodd;stroke:#000000;stroke-width:1pt;stroke-opacity:1"
         transform="matrix(0.4,0,0,0.4,4,0)"
         inkscape:connector-curvature="0" /></marker><marker
       inkscape:stockid="Arrow1Mend"
       orient="auto"
       refY="0"
       refX="0"
       id="Arrow1Mend"
       style="overflow:visible"
       inkscape:isstock="true"
       inkscape:collect="always"><path
         id="path4882"
         d="M 0,0 5,-5 -12.5,0 5,5 0,0 Z"
         style="fill:#000000;fill-opacity:1;fill-rule:evenodd;stroke:#000000;stroke-width:1pt;stroke-opacity:1"
         transform="matrix(-0.4,0,0,-0.4,-4,0)"
         inkscape:connector-curvature="0" /></marker><marker
       inkscape:isstock="true"
       style="overflow:visible"
       id="marker5171"
       refX="0"
       refY="0"
       orient="auto"
       inkscape:stockid="Arrow1Mstart"><path
         transform="matrix(0.4,0,0,0.4,4,0)"
         style="fill:#000000;fill-opacity:1;fill-rule:evenodd;stroke:#000000;stroke-width:1pt;stroke-opacity:1"
         d="M 0,0 5,-5 -12.5,0 5,5 0,0 Z"
         id="path5173-4"
         inkscape:connector-curvature="0" /></marker><marker
       inkscape:isstock="true"
       style="overflow:visible"
       id="marker5175"
       refX="0"
       refY="0"
       orient="auto"
       inkscape:stockid="Arrow1Mend"><path
         transform="matrix(-0.4,0,0,-0.4,-4,0)"
         style="fill:#000000;fill-opacity:1;fill-rule:evenodd;stroke:#000000;stroke-width:1pt;stroke-opacity:1"
         d="M 0,0 5,-5 -12.5,0 5,5 0,0 Z"
         id="path5177"
         inkscape:connector-curvature="0" /></marker></defs><sodipodi:namedview
     pagecolor="#ffffff"
     bordercolor="#666666"
     borderopacity="1"
     objecttolerance="10"
     gridtolerance="10"
     guidetolerance="10"
     inkscape:pageopacity="0"
     inkscape:pageshadow="2"
     inkscape:window-width="1918"
     inkscape:window-height="1036"
     id="namedview4979"
     showgrid="false"
     inkscape:zoom="1.9433865"
     inkscape:cx="277.3297"
     inkscape:cy="125.79158"
     inkscape:window-x="0"
     inkscape:window-y="21"
     inkscape:window-maximized="0"
     inkscape:current-layer="g4985" /><g
     id="g4985"
     inkscape:groupmode="layer"
     inkscape:label="bce_rec_004_h"
     transform="matrix(1.25,0,0,-1.25,0,259.675)"><g
       id="g4987"
       transform="scale(0.1,0.1)"><path
         d="m 0,0 6482,0 0,2154.97 -6482,0 L 0,0 Z"
         style="fill:#ffffff;fill-opacity:1;fill-rule:nonzero;stroke:none"
         id="path4989"
         inkscape:connector-curvature="0" /><path
         d="m 0,0 6482,0 0,2154.97 -6482,0 L 0,0 Z"
         style="fill:#ffffff;fill-opacity:1;fill-rule:nonzero;stroke:none"
         id="path4991"
         inkscape:connector-curvature="0" /><path
         d="m 234.504,1329.97 5565,0 0,600 -5565,0 0,-600 z"
         style="fill:#ffffff;fill-opacity:1;fill-rule:nonzero;stroke:none"
         id="path4993"
         inkscape:connector-curvature="0" /><path
         d="m 234.504,1329.97 5564.996,0"
         style="fill:none;stroke:#262626;stroke-width:5.00250006;stroke-linecap:square;stroke-linejoin:round;stroke-miterlimit:10;stroke-dasharray:none;stroke-opacity:1"
         id="path4995"
         inkscape:connector-curvature="0" /><path
         d="m 234.504,1929.97 5564.996,0"
         style="fill:none;stroke:#262626;stroke-width:5.00250006;stroke-linecap:square;stroke-linejoin:round;stroke-miterlimit:10;stroke-dasharray:none;stroke-opacity:1"
         id="path4997"
         inkscape:connector-curvature="0" /><path
         d="m 234.504,1329.97 0,55.66"
         style="fill:none;stroke:#262626;stroke-width:5.00250006;stroke-linecap:square;stroke-linejoin:round;stroke-miterlimit:10;stroke-dasharray:none;stroke-opacity:1"
         id="path4999"
         inkscape:connector-curvature="0" /><path
         d="m 856.988,1329.97 0,55.66"
         style="fill:none;stroke:#262626;stroke-width:5.00250006;stroke-linecap:square;stroke-linejoin:round;stroke-miterlimit:10;stroke-dasharray:none;stroke-opacity:1"
         id="path5001"
         inkscape:connector-curvature="0" /><path
         d="m 1479.47,1329.97 0,55.66"
         style="fill:none;stroke:#262626;stroke-width:5.00250006;stroke-linecap:square;stroke-linejoin:round;stroke-miterlimit:10;stroke-dasharray:none;stroke-opacity:1"
         id="path5003"
         inkscape:connector-curvature="0" /><path
         d="m 2101.95,1329.97 0,55.66"
         style="fill:none;stroke:#262626;stroke-width:5.00250006;stroke-linecap:square;stroke-linejoin:round;stroke-miterlimit:10;stroke-dasharray:none;stroke-opacity:1"
         id="path5005"
         inkscape:connector-curvature="0" /><path
         d="m 2724.44,1329.97 0,55.66"
         style="fill:none;stroke:#262626;stroke-width:5.00250006;stroke-linecap:square;stroke-linejoin:round;stroke-miterlimit:10;stroke-dasharray:none;stroke-opacity:1"
         id="path5007"
         inkscape:connector-curvature="0" /><path
         d="m 3346.92,1329.97 0,55.66"
         style="fill:none;stroke:#262626;stroke-width:5.00250006;stroke-linecap:square;stroke-linejoin:round;stroke-miterlimit:10;stroke-dasharray:none;stroke-opacity:1"
         id="path5009"
         inkscape:connector-curvature="0" /><path
         d="m 3969.41,1329.97 0,55.66"
         style="fill:none;stroke:#262626;stroke-width:5.00250006;stroke-linecap:square;stroke-linejoin:round;stroke-miterlimit:10;stroke-dasharray:none;stroke-opacity:1"
         id="path5011"
         inkscape:connector-curvature="0" /><path
         d="m 4591.88,1329.97 0,55.66"
         style="fill:none;stroke:#262626;stroke-width:5.00250006;stroke-linecap:square;stroke-linejoin:round;stroke-miterlimit:10;stroke-dasharray:none;stroke-opacity:1"
         id="path5013"
         inkscape:connector-curvature="0" /><path
         d="m 5214.37,1329.97 0,55.66"
         style="fill:none;stroke:#262626;stroke-width:5.00250006;stroke-linecap:square;stroke-linejoin:round;stroke-miterlimit:10;stroke-dasharray:none;stroke-opacity:1"
         id="path5015"
         inkscape:connector-curvature="0" /><path
         d="m 234.504,1929.97 0,-55.65"
         style="fill:none;stroke:#262626;stroke-width:5.00250006;stroke-linecap:square;stroke-linejoin:round;stroke-miterlimit:10;stroke-dasharray:none;stroke-opacity:1"
         id="path5017"
         inkscape:connector-curvature="0" /><path
         d="m 856.988,1929.97 0,-55.65"
         style="fill:none;stroke:#262626;stroke-width:5.00250006;stroke-linecap:square;stroke-linejoin:round;stroke-miterlimit:10;stroke-dasharray:none;stroke-opacity:1"
         id="path5019"
         inkscape:connector-curvature="0" /><path
         d="m 1479.47,1929.97 0,-55.65"
         style="fill:none;stroke:#262626;stroke-width:5.00250006;stroke-linecap:square;stroke-linejoin:round;stroke-miterlimit:10;stroke-dasharray:none;stroke-opacity:1"
         id="path5021"
         inkscape:connector-curvature="0" /><path
         d="m 2101.95,1929.97 0,-55.65"
         style="fill:none;stroke:#262626;stroke-width:5.00250006;stroke-linecap:square;stroke-linejoin:round;stroke-miterlimit:10;stroke-dasharray:none;stroke-opacity:1"
         id="path5023"
         inkscape:connector-curvature="0" /><path
         d="m 2724.44,1929.97 0,-55.65"
         style="fill:none;stroke:#262626;stroke-width:5.00250006;stroke-linecap:square;stroke-linejoin:round;stroke-miterlimit:10;stroke-dasharray:none;stroke-opacity:1"
         id="path5025"
         inkscape:connector-curvature="0" /><path
         d="m 3346.92,1929.97 0,-55.65"
         style="fill:none;stroke:#262626;stroke-width:5.00250006;stroke-linecap:square;stroke-linejoin:round;stroke-miterlimit:10;stroke-dasharray:none;stroke-opacity:1"
         id="path5027"
         inkscape:connector-curvature="0" /><path
         d="m 3969.41,1929.97 0,-55.65"
         style="fill:none;stroke:#262626;stroke-width:5.00250006;stroke-linecap:square;stroke-linejoin:round;stroke-miterlimit:10;stroke-dasharray:none;stroke-opacity:1"
         id="path5029"
         inkscape:connector-curvature="0" /><path
         d="m 4591.88,1929.97 0,-55.65"
         style="fill:none;stroke:#262626;stroke-width:5.00250006;stroke-linecap:square;stroke-linejoin:round;stroke-miterlimit:10;stroke-dasharray:none;stroke-opacity:1"
         id="path5031"
         inkscape:connector-curvature="0" /><path
         d="m 5214.37,1929.97 0,-55.65"
         style="fill:none;stroke:#262626;stroke-width:5.00250006;stroke-linecap:square;stroke-linejoin:round;stroke-miterlimit:10;stroke-dasharray:none;stroke-opacity:1"
         id="path5033"
         inkscape:connector-curvature="0" /><g
         id="g5035"
         transform="scale(10,10)"><text
           transform="matrix(1,0,0,-1,20.0754,119.247)"
           style="font-variant:normal;font-weight:normal;font-size:9.75px;font-family:Helvetica;-inkscape-font-specification:Helvetica;writing-mode:lr-tb;fill:#262626;fill-opacity:1;fill-rule:nonzero;stroke:none"
           id="text5037"><tspan
             x="0 56.248432 61.669434 67.090431 118.49653 123.91753 129.33853 180.74501 186.16602 191.58701 242.9935 248.41451 253.83549 305.24197 310.66299 316.08398 367.49008 372.91107 378.33209 429.73856 435.15958 440.58057 491.98706 497.40805 502.82904"
             y="0"
             sodipodi:role="line"
             id="tspan5039">0100200300400500600700800</tspan></text>
</g><path
         d="m 234.504,1329.97 0,600"
         style="fill:none;stroke:#262626;stroke-width:5.00250006;stroke-linecap:square;stroke-linejoin:round;stroke-miterlimit:10;stroke-dasharray:none;stroke-opacity:1"
         id="path5041"
         inkscape:connector-curvature="0" /><path
         d="m 5799.5,1329.97 0,600"
         style="fill:none;stroke:#262626;stroke-width:5.00250006;stroke-linecap:square;stroke-linejoin:round;stroke-miterlimit:10;stroke-dasharray:none;stroke-opacity:1"
         id="path5043"
         inkscape:connector-curvature="0" /><path
         d="m 234.504,1329.97 55.648,0"
         style="fill:none;stroke:#262626;stroke-width:5.00250006;stroke-linecap:square;stroke-linejoin:round;stroke-miterlimit:10;stroke-dasharray:none;stroke-opacity:1"
         id="path5045"
         inkscape:connector-curvature="0" /><path
         d="m 234.504,1629.97 55.648,0"
         style="fill:none;stroke:#262626;stroke-width:5.00250006;stroke-linecap:square;stroke-linejoin:round;stroke-miterlimit:10;stroke-dasharray:none;stroke-opacity:1"
         id="path5047"
         inkscape:connector-curvature="0" /><path
         d="m 234.504,1929.97 55.648,0"
         style="fill:none;stroke:#262626;stroke-width:5.00250006;stroke-linecap:square;stroke-linejoin:round;stroke-miterlimit:10;stroke-dasharray:none;stroke-opacity:1"
         id="path5049"
         inkscape:connector-curvature="0" /><path
         d="m 5799.5,1329.97 -55.64,0"
         style="fill:none;stroke:#262626;stroke-width:5.00250006;stroke-linecap:square;stroke-linejoin:round;stroke-miterlimit:10;stroke-dasharray:none;stroke-opacity:1"
         id="path5051"
         inkscape:connector-curvature="0" /><path
         d="m 5799.5,1629.97 -55.64,0"
         style="fill:none;stroke:#262626;stroke-width:5.00250006;stroke-linecap:square;stroke-linejoin:round;stroke-miterlimit:10;stroke-dasharray:none;stroke-opacity:1"
         id="path5053"
         inkscape:connector-curvature="0" /><path
         d="m 5799.5,1929.97 -55.64,0"
         style="fill:none;stroke:#262626;stroke-width:5.00250006;stroke-linecap:square;stroke-linejoin:round;stroke-miterlimit:10;stroke-dasharray:none;stroke-opacity:1"
         id="path5055"
         inkscape:connector-curvature="0" /><g
         id="g5057"
         transform="scale(10,10)"><text
           transform="matrix(1,0,0,-1,9.70039,129.622)"
           style="font-variant:normal;font-weight:normal;font-size:9.75px;font-family:Helvetica;-inkscape-font-specification:Helvetica;writing-mode:lr-tb;fill:#262626;fill-opacity:1;fill-rule:nonzero;stroke:none"
           id="text5059"><tspan
             x="0 3.2467501"
             y="0"
             sodipodi:role="line"
             id="tspan5061">-2</tspan><tspan
             x="3"
             y="-30"
             id="tspan5063">0</tspan><tspan
             x="3"
             y="-60"
             id="tspan5065">2</tspan></text>
</g><g
         id="g5067"
         transform="scale(10,10)"><text
           transform="matrix(1,0,0,-1,283.7,198.247)"
           style="font-variant:normal;font-weight:normal;font-size:11.25px;font-family:Helvetica;-inkscape-font-specification:Helvetica;writing-mode:lr-tb;fill:#000000;fill-opacity:1;fill-rule:nonzero;stroke:none"
           id="text5069"><tspan
             x="0 6.2550001 12.51 15.6375 19.383751 25.63875"
             y="0"
             sodipodi:role="line"
             id="tspan5071">h_true</tspan></text>
</g><path
         d="m 240.73,1629.97 305.016,0"
         style="fill:none;stroke:#0072bd;stroke-width:15;stroke-linecap:butt;stroke-linejoin:round;stroke-miterlimit:10;stroke-dasharray:none;stroke-opacity:1"
         id="path5073"
         inkscape:connector-curvature="0" /><path
         d="m 539.523,1629.97 317.465,0"
         style="fill:none;stroke:#0072bd;stroke-width:15;stroke-linecap:butt;stroke-linejoin:round;stroke-miterlimit:10;stroke-dasharray:none;stroke-opacity:1"
         id="path5075"
         inkscape:connector-curvature="0" /><path
         d="m 850.766,1629.97 317.464,0"
         style="fill:none;stroke:#0072bd;stroke-width:15;stroke-linecap:butt;stroke-linejoin:round;stroke-miterlimit:10;stroke-dasharray:none;stroke-opacity:1"
         id="path5077"
         inkscape:connector-curvature="0" /><path
         d="m 1162.01,1629.97 6.22,0 6.23,1.15 6.22,3.6 6.23,-4.61 6.22,0.5 6.23,12.65 6.22,0.45 6.22,-12.93 6.22,10.33 6.23,15.85 6.22,-8.74 6.23,79.17 6.23,-45.8 6.22,-41.47 6.23,71.42 6.22,-2.73 6.22,-10.33 6.23,-21.25 6.22,13.56 6.23,57.03 6.22,-91.87 6.23,69.24 6.23,-40.31 6.22,-74.09 6.23,-45.19 6.22,75 6.22,-54.13 6.23,-17.75 6.22,1.49 6.23,-11.12 6.22,-9.02 6.23,-83.75 6.23,131 6.22,-82.69 6.23,69.41 6.22,-20.38 6.22,61.15 6.23,-4.97 6.22,-25.14 6.23,15.76 6.22,16.02 6.23,-5.4 6.23,1.04 6.22,1.52 6.23,3.21 6.22,1.74 6.22,1.38 24.9,0"
         style="fill:none;stroke:#0072bd;stroke-width:15;stroke-linecap:butt;stroke-linejoin:round;stroke-miterlimit:10;stroke-dasharray:none;stroke-opacity:1"
         id="path5079"
         inkscape:connector-curvature="0" /><path
         d="m 1473.25,1629.97 317.46,0"
         style="fill:none;stroke:#0072bd;stroke-width:15;stroke-linecap:butt;stroke-linejoin:round;stroke-miterlimit:10;stroke-dasharray:none;stroke-opacity:1"
         id="path5081"
         inkscape:connector-curvature="0" /><path
         d="m 1784.48,1629.97 317.47,0"
         style="fill:none;stroke:#0072bd;stroke-width:15;stroke-linecap:butt;stroke-linejoin:round;stroke-miterlimit:10;stroke-dasharray:none;stroke-opacity:1"
         id="path5083"
         inkscape:connector-curvature="0" /><path
         d="m 2095.73,1629.97 317.47,0"
         style="fill:none;stroke:#0072bd;stroke-width:15;stroke-linecap:butt;stroke-linejoin:round;stroke-miterlimit:10;stroke-dasharray:none;stroke-opacity:1"
         id="path5085"
         inkscape:connector-curvature="0" /><path
         d="m 2406.97,1629.97 255.22,0 6.22,0.76 6.23,1.49 6.22,-2.19 6.23,0.22 6.22,4.71 6.23,-0.94 6.22,-3.57 6.23,6.27 6.22,1.45 6.23,-1.49"
         style="fill:none;stroke:#0072bd;stroke-width:15;stroke-linecap:butt;stroke-linejoin:round;stroke-miterlimit:10;stroke-dasharray:none;stroke-opacity:1"
         id="path5087"
         inkscape:connector-curvature="0" /><path
         d="m 2718.21,1638.17 6.23,-1.49 6.22,23.19 6.23,-4.94 6.22,-20.59 6.23,19.74 6.22,5.28 6.23,-7.68 6.22,6.06 6.23,2.69 6.22,29.52 6.23,-47.47 6.22,26.27 6.23,-24.46 6.22,18.98 6.23,-30.14 6.22,6.8 6.23,3.12 6.22,-6.07 6.23,-4.89 6.22,3.27 6.23,-1.78 6.22,-1.1 6.23,-1.37 6.22,-0.72 6.23,-0.42 105.81,0 6.23,-0.51 6.23,-0.84 6.22,1.29 6.22,-0.1 6.23,-3.48 6.22,-0.07 6.23,3.34 6.22,-4.26 6.23,-3.64"
         style="fill:none;stroke:#0072bd;stroke-width:15;stroke-linecap:butt;stroke-linejoin:round;stroke-miterlimit:10;stroke-dasharray:none;stroke-opacity:1"
         id="path5089"
         inkscape:connector-curvature="0" /><path
         d="m 3029.45,1625.34 6.23,-3.64 6.23,3.32 6.22,-18.05 6.23,-9.01 6.22,28.9 6.22,-25.36 6.23,-0.3 6.22,13.42 6.23,-0.1 6.22,-12.2 6.23,-16.94 6.22,30.65 6.23,-27.82 6.23,28.97 6.22,-6.05 6.22,15.39 6.23,-6.84 6.22,0.22 6.23,1.57 6.22,2.5 6.22,-12.29 6.23,10.9 6.22,-25.72 6.23,4.17 6.22,26.27 6.23,-18.74 6.22,-18.07 6.23,12.34 6.22,2.86 6.23,-1.6 6.22,-33.67 6.23,41.95 6.22,-27.82 6.23,27.31 6.22,4.49 6.23,11.54 6.22,-2.25 6.23,-4.24 6.22,4.68 6.23,2.33 6.22,-2.4 6.23,1.78 6.22,0.54 6.23,0.71 6.22,0.48 6.23,0.45 31.12,0"
         style="fill:none;stroke:#0072bd;stroke-width:15;stroke-linecap:butt;stroke-linejoin:round;stroke-miterlimit:10;stroke-dasharray:none;stroke-opacity:1"
         id="path5091"
         inkscape:connector-curvature="0" /><path
         d="m 3340.7,1629.97 87.15,0 6.22,0.26 6.22,0.55 6.23,-0.77 6.22,0.1 6.22,4.23 6.23,0.23 6.22,-4.22 6.23,3.05 6.22,5.39 6.23,-3.54 6.22,30.64 6.23,-10.26 6.23,-21.8 6.22,13.32 6.22,6.28 6.23,8.53 6.22,-11.75 6.23,0.01 6.22,13.98 6.23,-20.25 6.22,13.19 6.23,-13.95 6.23,-0.11 6.22,-10.47 6.22,1.98 6.23,6.12 6.22,-4 6.23,-5.45 6.22,2.53 6.23,-0.97 6.22,-1.14 6.23,-0.8 6.23,-0.55 6.22,-0.36 18.67,0"
         style="fill:none;stroke:#0072bd;stroke-width:15;stroke-linecap:butt;stroke-linejoin:round;stroke-miterlimit:10;stroke-dasharray:none;stroke-opacity:1"
         id="path5093"
         inkscape:connector-curvature="0" /><path
         d="m 3651.94,1629.97 317.47,0"
         style="fill:none;stroke:#0072bd;stroke-width:15;stroke-linecap:butt;stroke-linejoin:round;stroke-miterlimit:10;stroke-dasharray:none;stroke-opacity:1"
         id="path5095"
         inkscape:connector-curvature="0" /><path
         d="m 3963.18,1629.97 317.46,0"
         style="fill:none;stroke:#0072bd;stroke-width:15;stroke-linecap:butt;stroke-linejoin:round;stroke-miterlimit:10;stroke-dasharray:none;stroke-opacity:1"
         id="path5097"
         inkscape:connector-curvature="0" /><path
         d="m 4274.42,1629.97 317.46,0"
         style="fill:none;stroke:#0072bd;stroke-width:15;stroke-linecap:butt;stroke-linejoin:round;stroke-miterlimit:10;stroke-dasharray:none;stroke-opacity:1"
         id="path5099"
         inkscape:connector-curvature="0" /><path
         d="m 4585.66,1629.97 317.47,0"
         style="fill:none;stroke:#0072bd;stroke-width:15;stroke-linecap:butt;stroke-linejoin:round;stroke-miterlimit:10;stroke-dasharray:none;stroke-opacity:1"
         id="path5101"
         inkscape:connector-curvature="0" /><path
         d="m 4896.9,1629.97 317.47,0"
         style="fill:none;stroke:#0072bd;stroke-width:15;stroke-linecap:butt;stroke-linejoin:round;stroke-miterlimit:10;stroke-dasharray:none;stroke-opacity:1"
         id="path5103"
         inkscape:connector-curvature="0" /><path
         d="m 5208.14,1629.97 56.03,0 6.22,-0.35 6.23,-0.57 6.22,0.9 6.23,-0.08 6.22,-1.44 6.23,-1.15 6.23,2.4 6.22,-2.55 6.23,-1.72 6.22,1.63 6.22,-12.79 6.23,7.9 6.22,5.31 6.23,-11.37 6.22,-4.88 6.23,-0.5 6.23,2.12 6.22,5.04 6.22,-12.77 6.22,17.79 6.23,-13.65 6.22,11.14 6.23,-0.26 6.22,8.2 6.23,-2.73 6.22,-4.47 6.23,6.22 6.22,1.5 6.23,-0.91 6.22,0.33 6.23,0.45 6.22,0.76 6.23,0.21 6.22,0.29 49.8,0"
         style="fill:none;stroke:#0072bd;stroke-width:15;stroke-linecap:butt;stroke-linejoin:round;stroke-miterlimit:10;stroke-dasharray:none;stroke-opacity:1"
         id="path5105"
         inkscape:connector-curvature="0" /><path
         d="m 5519.39,1629.97 74.7,0 6.22,0.33 6.23,0.69 6.22,-0.98 6.23,0.08 6.22,2.29 6.23,-1.01 6.22,-1.18 6.23,1.92 6.22,2.71 6.23,-2.78 6.21,13.84 6.23,0.53 6.22,-14.99 6.23,9.86 6.22,4.74 6.23,-3.45 6.23,-0.93 6.22,-1.69 6.23,15.11 6.22,-16.84 6.22,14.37 6.23,-15.23 6.22,5.62 6.23,-11.89 6.22,1.88 6.23,3.73 6.23,-3.7 6.22,-2 6.23,0.8 6.22,0.1 6.22,-0.69 6.23,-0.7 6.22,-0.26"
         style="fill:none;stroke:#0072bd;stroke-width:15;stroke-linecap:butt;stroke-linejoin:round;stroke-miterlimit:10;stroke-dasharray:none;stroke-opacity:1"
         id="path5107"
         inkscape:connector-curvature="0" /><path
         d="m 234.504,302.473 5565,0 0,600 -5565,0 0,-600 z"
         style="fill:#ffffff;fill-opacity:1;fill-rule:nonzero;stroke:none"
         id="path5109"
         inkscape:connector-curvature="0" /><path
         d="m 234.504,302.473 5564.996,0"
         style="fill:none;stroke:#262626;stroke-width:5.00250006;stroke-linecap:square;stroke-linejoin:round;stroke-miterlimit:10;stroke-dasharray:none;stroke-opacity:1"
         id="path5111"
         inkscape:connector-curvature="0" /><path
         d="m 234.504,902.473 5564.996,0"
         style="fill:none;stroke:#262626;stroke-width:5.00250006;stroke-linecap:square;stroke-linejoin:round;stroke-miterlimit:10;stroke-dasharray:none;stroke-opacity:1"
         id="path5113"
         inkscape:connector-curvature="0" /><path
         d="m 234.504,302.473 0,55.652"
         style="fill:none;stroke:#262626;stroke-width:5.00250006;stroke-linecap:square;stroke-linejoin:round;stroke-miterlimit:10;stroke-dasharray:none;stroke-opacity:1"
         id="path5115"
         inkscape:connector-curvature="0" /><path
         d="m 856.988,302.473 0,55.652"
         style="fill:none;stroke:#262626;stroke-width:5.00250006;stroke-linecap:square;stroke-linejoin:round;stroke-miterlimit:10;stroke-dasharray:none;stroke-opacity:1"
         id="path5117"
         inkscape:connector-curvature="0" /><path
         d="m 1479.47,302.473 0,55.652"
         style="fill:none;stroke:#262626;stroke-width:5.00250006;stroke-linecap:square;stroke-linejoin:round;stroke-miterlimit:10;stroke-dasharray:none;stroke-opacity:1"
         id="path5119"
         inkscape:connector-curvature="0" /><path
         d="m 2101.95,302.473 0,55.652"
         style="fill:none;stroke:#262626;stroke-width:5.00250006;stroke-linecap:square;stroke-linejoin:round;stroke-miterlimit:10;stroke-dasharray:none;stroke-opacity:1"
         id="path5121"
         inkscape:connector-curvature="0" /><path
         d="m 2724.44,302.473 0,55.652"
         style="fill:none;stroke:#262626;stroke-width:5.00250006;stroke-linecap:square;stroke-linejoin:round;stroke-miterlimit:10;stroke-dasharray:none;stroke-opacity:1"
         id="path5123"
         inkscape:connector-curvature="0" /><path
         d="m 3346.92,302.473 0,55.652"
         style="fill:none;stroke:#262626;stroke-width:5.00250006;stroke-linecap:square;stroke-linejoin:round;stroke-miterlimit:10;stroke-dasharray:none;stroke-opacity:1"
         id="path5125"
         inkscape:connector-curvature="0" /><path
         d="m 3969.41,302.473 0,55.652"
         style="fill:none;stroke:#262626;stroke-width:5.00250006;stroke-linecap:square;stroke-linejoin:round;stroke-miterlimit:10;stroke-dasharray:none;stroke-opacity:1"
         id="path5127"
         inkscape:connector-curvature="0" /><path
         d="m 4591.88,302.473 0,55.652"
         style="fill:none;stroke:#262626;stroke-width:5.00250006;stroke-linecap:square;stroke-linejoin:round;stroke-miterlimit:10;stroke-dasharray:none;stroke-opacity:1"
         id="path5129"
         inkscape:connector-curvature="0" /><path
         d="m 5214.37,302.473 0,55.652"
         style="fill:none;stroke:#262626;stroke-width:5.00250006;stroke-linecap:square;stroke-linejoin:round;stroke-miterlimit:10;stroke-dasharray:none;stroke-opacity:1"
         id="path5131"
         inkscape:connector-curvature="0" /><path
         d="m 234.504,902.473 0,-55.649"
         style="fill:none;stroke:#262626;stroke-width:5.00250006;stroke-linecap:square;stroke-linejoin:round;stroke-miterlimit:10;stroke-dasharray:none;stroke-opacity:1"
         id="path5133"
         inkscape:connector-curvature="0" /><path
         d="m 856.988,902.473 0,-55.649"
         style="fill:none;stroke:#262626;stroke-width:5.00250006;stroke-linecap:square;stroke-linejoin:round;stroke-miterlimit:10;stroke-dasharray:none;stroke-opacity:1"
         id="path5135"
         inkscape:connector-curvature="0" /><path
         d="m 1479.47,902.473 0,-55.649"
         style="fill:none;stroke:#262626;stroke-width:5.00250006;stroke-linecap:square;stroke-linejoin:round;stroke-miterlimit:10;stroke-dasharray:none;stroke-opacity:1"
         id="path5137"
         inkscape:connector-curvature="0" /><path
         d="m 2101.95,902.473 0,-55.649"
         style="fill:none;stroke:#262626;stroke-width:5.00250006;stroke-linecap:square;stroke-linejoin:round;stroke-miterlimit:10;stroke-dasharray:none;stroke-opacity:1"
         id="path5139"
         inkscape:connector-curvature="0" /><path
         d="m 2724.44,902.473 0,-55.649"
         style="fill:none;stroke:#262626;stroke-width:5.00250006;stroke-linecap:square;stroke-linejoin:round;stroke-miterlimit:10;stroke-dasharray:none;stroke-opacity:1"
         id="path5141"
         inkscape:connector-curvature="0" /><path
         d="m 3346.92,902.473 0,-55.649"
         style="fill:none;stroke:#262626;stroke-width:5.00250006;stroke-linecap:square;stroke-linejoin:round;stroke-miterlimit:10;stroke-dasharray:none;stroke-opacity:1"
         id="path5143"
         inkscape:connector-curvature="0" /><path
         d="m 3969.41,902.473 0,-55.649"
         style="fill:none;stroke:#262626;stroke-width:5.00250006;stroke-linecap:square;stroke-linejoin:round;stroke-miterlimit:10;stroke-dasharray:none;stroke-opacity:1"
         id="path5145"
         inkscape:connector-curvature="0" /><path
         d="m 4591.88,902.473 0,-55.649"
         style="fill:none;stroke:#262626;stroke-width:5.00250006;stroke-linecap:square;stroke-linejoin:round;stroke-miterlimit:10;stroke-dasharray:none;stroke-opacity:1"
         id="path5147"
         inkscape:connector-curvature="0" /><path
         d="m 5214.37,902.473 0,-55.649"
         style="fill:none;stroke:#262626;stroke-width:5.00250006;stroke-linecap:square;stroke-linejoin:round;stroke-miterlimit:10;stroke-dasharray:none;stroke-opacity:1"
         id="path5149"
         inkscape:connector-curvature="0" /><g
         id="g5151"
         transform="scale(10,10)"><text
           transform="matrix(1,0,0,-1,20.0754,16.4973)"
           style="font-variant:normal;font-weight:normal;font-size:9.75px;font-family:Helvetica;-inkscape-font-specification:Helvetica;writing-mode:lr-tb;fill:#262626;fill-opacity:1;fill-rule:nonzero;stroke:none"
           id="text5153"><tspan
             x="0 56.248432 61.669434 67.090431 118.49653 123.91753 129.33853 180.74501 186.16602 191.58701 242.9935 248.41451 253.83549 305.24197 310.66299 316.08398 367.49008 372.91107 378.33209 429.73856 435.15958 440.58057 491.98706 497.40805 502.82904"
             y="0"
             sodipodi:role="line"
             id="tspan5155">0100200300400500600700800</tspan></text>
<text
           transform="matrix(1,0,0,-1,285.9504,1.9973)"
           style="font-variant:normal;font-weight:normal;font-size:11.25px;font-family:Helvetica;-inkscape-font-specification:Helvetica;writing-mode:lr-tb;fill:#262626;fill-opacity:1;fill-rule:nonzero;stroke:none"
           id="text5157"><tspan
             x="0 2.4974999 8.7524996 15.0075 21.262501"
             y="0"
             sodipodi:role="line"
             id="tspan5159">index</tspan></text>
</g><path
         d="m 234.504,302.473 0,600"
         style="fill:none;stroke:#262626;stroke-width:5.00250006;stroke-linecap:square;stroke-linejoin:round;stroke-miterlimit:10;stroke-dasharray:none;stroke-opacity:1"
         id="path5161"
         inkscape:connector-curvature="0" /><path
         d="m 5799.5,302.473 0,600"
         style="fill:none;stroke:#262626;stroke-width:5.00250006;stroke-linecap:square;stroke-linejoin:round;stroke-miterlimit:10;stroke-dasharray:none;stroke-opacity:1"
         id="path5163"
         inkscape:connector-curvature="0" /><path
         d="m 234.504,302.473 55.648,0"
         style="fill:none;stroke:#262626;stroke-width:5.00250006;stroke-linecap:square;stroke-linejoin:round;stroke-miterlimit:10;stroke-dasharray:none;stroke-opacity:1"
         id="path5165"
         inkscape:connector-curvature="0" /><path
         d="m 234.504,602.473 55.648,0"
         style="fill:none;stroke:#262626;stroke-width:5.00250006;stroke-linecap:square;stroke-linejoin:round;stroke-miterlimit:10;stroke-dasharray:none;stroke-opacity:1"
         id="path5167"
         inkscape:connector-curvature="0" /><path
         d="m 234.504,902.473 55.648,0"
         style="fill:none;stroke:#262626;stroke-width:5.00250006;stroke-linecap:square;stroke-linejoin:round;stroke-miterlimit:10;stroke-dasharray:none;stroke-opacity:1"
         id="path5169"
         inkscape:connector-curvature="0" /><path
         d="m 5799.5,302.473 -55.64,0"
         style="fill:none;stroke:#262626;stroke-width:5.00250006;stroke-linecap:square;stroke-linejoin:round;stroke-miterlimit:10;stroke-dasharray:none;stroke-opacity:1"
         id="path5171"
         inkscape:connector-curvature="0" /><path
         d="m 5799.5,602.473 -55.64,0"
         style="fill:none;stroke:#262626;stroke-width:5.00250006;stroke-linecap:square;stroke-linejoin:round;stroke-miterlimit:10;stroke-dasharray:none;stroke-opacity:1"
         id="path5173"
         inkscape:connector-curvature="0" /><path
         d="m 5799.5,902.473 -55.64,0"
         style="fill:none;stroke:#262626;stroke-width:5.00250006;stroke-linecap:square;stroke-linejoin:round;stroke-miterlimit:10;stroke-dasharray:none;stroke-opacity:1"
         id="path5175"
         inkscape:connector-curvature="0" /><g
         id="g5177"
         transform="scale(10,10)"><text
           transform="matrix(1,0,0,-1,-0.0496094,26.8723)"
           style="font-variant:normal;font-weight:normal;font-size:9.75px;font-family:Helvetica;-inkscape-font-specification:Helvetica;writing-mode:lr-tb;fill:#262626;fill-opacity:1;fill-rule:nonzero;stroke:none"
           id="text5179"><tspan
             x="0 3.2467501 8.6677504 11.37825"
             y="0"
             sodipodi:role="line"
             id="tspan5181">-0.2</tspan><tspan
             x="12.75"
             y="-30"
             id="tspan5183">0</tspan><tspan
             x="3.75 9.1709995 11.8815"
             y="-60"
             sodipodi:role="line"
             id="tspan5185">0.2</tspan></text>
</g><g
         id="g5187"
         transform="scale(10,10)"><text
           transform="matrix(1,0,0,-1,286.7,95.4973)"
           style="font-variant:normal;font-weight:normal;font-size:11.25px;font-family:Helvetica;-inkscape-font-specification:Helvetica;writing-mode:lr-tb;fill:#000000;fill-opacity:1;fill-rule:nonzero;stroke:none"
           id="text5189"><tspan
             x="0 6.2550001 12.51 18.764999 24.389999"
             y="0"
             sodipodi:role="line"
             id="tspan5191">h_est</tspan></text>
</g><path
         d="m 240.73,602.586 6.223,0.668 6.227,-0.742 6.222,0.441 6.227,1.008 6.226,0.23 6.223,-1.718 6.227,0 6.222,0.961 6.227,0.367 6.226,-1.328 6.223,1.769 6.227,-0.554 6.222,0.25 6.227,-1.028 6.226,0.059 6.223,-0.496 12.449,0 6.227,0.347 6.226,0.106 6.223,-0.453 6.219,-2 6.226,-1.098 6.223,4.973 6.227,-1.875 6.222,-1.2 6.227,1.2 12.449,0 6.227,-2.375 6.222,2.375 12.453,0 6.223,-2.309 6.227,1.906 6.222,0.043 6.227,0.36 68.476,0 6.223,-0.989"
         style="fill:none;stroke:#0072bd;stroke-width:15;stroke-linecap:butt;stroke-linejoin:round;stroke-miterlimit:10;stroke-dasharray:none;stroke-opacity:1"
         id="path5193"
         inkscape:connector-curvature="0" /><path
         d="m 539.523,602.473 6.223,-0.989 6.227,0.989 18.675,0 6.223,-0.418 6.227,0.418 87.14,0 6.227,0.715 6.223,-0.715 37.351,0 6.227,-0.645 6.222,-2.465 6.227,0.188 6.223,-1.809 6.226,-6.996 6.227,-7.336 6.222,-0.437 6.227,0.535 6.223,-17.895 6.226,-41.722 6.227,-38.071 6.222,3.957 6.227,31.75 6.223,5.821 6.226,-42.735 6.227,-36.504 6.222,32.821 6.227,37.535 6.223,-29.277 6.226,-42.34 6.227,34.777 6.222,90.781"
         style="fill:none;stroke:#0072bd;stroke-width:15;stroke-linecap:butt;stroke-linejoin:round;stroke-miterlimit:10;stroke-dasharray:none;stroke-opacity:1"
         id="path5195"
         inkscape:connector-curvature="0" /><path
         d="m 850.766,481.625 6.222,90.781 6.227,63.032 6.223,36 6.226,9.187 6.227,-7.906 6.222,-0.766 6.227,46.352 6.223,51.48 6.226,10.695 6.227,-7.765 6.222,-2.578 6.227,-29.789 6.219,-54.383 6.222,-30.024 6.227,-10.093 6.222,-18.016 6.227,-12.519 6.227,18.136 6.222,9.406 6.227,-34.621 6.222,-15.757 6.227,10.418 6.227,22.539 6.226,-22.961 6.22,-10.723 6.23,10.723 6.22,4.668 6.23,-4.668 6.22,-3.973 6.23,3.973 6.22,1.613 6.23,-1.613 6.22,-1.59 6.23,0.945 6.22,0.645 6.23,0 6.22,-0.231 6.23,-0.34 6.22,0.571 74.7,0"
         style="fill:none;stroke:#0072bd;stroke-width:15;stroke-linecap:butt;stroke-linejoin:round;stroke-miterlimit:10;stroke-dasharray:none;stroke-opacity:1"
         id="path5197"
         inkscape:connector-curvature="0" /><path
         d="m 1162.01,602.473 37.35,0 6.22,-0.149 6.22,0.129 6.22,0.02 261.45,0"
         style="fill:none;stroke:#0072bd;stroke-width:15;stroke-linecap:butt;stroke-linejoin:round;stroke-miterlimit:10;stroke-dasharray:none;stroke-opacity:1"
         id="path5199"
         inkscape:connector-curvature="0" /><path
         d="m 1473.25,602.473 12.45,0 6.22,1.5 6.22,-1.5 6.23,3.496 6.22,-2.918 6.23,0.715 6.22,-1.293 18.68,0 6.22,1.597 6.23,-0.914 6.22,-0.406 6.23,0.48 6.22,-0.382 6.23,-0.375 49.8,0 6.22,-3.285 6.23,3.285 12.45,0 6.22,-0.289 6.22,-1.614 6.23,1.903 80.93,0 6.22,-0.11 6.22,0.11 24.9,0"
         style="fill:none;stroke:#0072bd;stroke-width:15;stroke-linecap:butt;stroke-linejoin:round;stroke-miterlimit:10;stroke-dasharray:none;stroke-opacity:1"
         id="path5201"
         inkscape:connector-curvature="0" /><path
         d="m 1784.48,602.473 24.9,0 6.23,-1.243 6.23,1.243 37.34,0 6.23,-1.649 6.22,1.649 6.23,0 6.23,-0.075 6.22,0.075 49.8,0 6.23,1.09 6.22,-1.09 12.45,0 6.22,0.097 6.23,-0.097 124.49,0"
         style="fill:none;stroke:#0072bd;stroke-width:15;stroke-linecap:butt;stroke-linejoin:round;stroke-miterlimit:10;stroke-dasharray:none;stroke-opacity:1"
         id="path5203"
         inkscape:connector-curvature="0" /><path
         d="m 2095.73,602.473 18.67,0 6.23,0.722 6.22,0.305 6.23,-0.742 6.22,-0.285 6.23,0 6.22,0.047 6.23,3.031 6.22,-3.078 6.23,2.168 6.22,-2.168 56.03,0 6.22,-4.887 6.23,4.887 6.22,-3.508 6.23,-0.055 6.22,-5.765 6.23,-4.622 6.22,-7.996 6.23,-13.558 6.22,-9.578 6.23,10.695 6.22,10.93 6.23,-12.731 6.22,-19.836 6.23,-2.836 6.21,4.77 6.23,-6.313 6.23,-5.183 6.22,18.562 6.23,24.367 6.22,-2.281 6.22,-7.234 6.23,14.262 6.22,15.097 6.23,-4.68 6.22,-10.73 6.23,10.883 6.23,7.34 6.22,-0.785 6.23,-7.395"
         style="fill:none;stroke:#0072bd;stroke-width:15;stroke-linecap:butt;stroke-linejoin:round;stroke-miterlimit:10;stroke-dasharray:none;stroke-opacity:1"
         id="path5205"
         inkscape:connector-curvature="0" /><path
         d="m 2406.97,601.688 6.23,-7.395 6.22,8.18 12.45,0 6.22,-2.774 6.23,2.774 12.45,0 6.23,-3.012 6.22,3.012 12.45,0 6.22,-1.125 6.23,0.668 6.22,0.457 49.8,0 6.23,0.894 6.22,2.129 6.23,4.082 6.22,-4.351 6.23,3.66 6.23,6.261 6.22,10.567 6.23,12.332 6.21,5.445 6.23,-2.429 6.22,-7.704 6.23,0.864 6.22,6.621 6.23,-0.614 6.22,-1.027 6.23,13.695 6.22,11.594 6.23,-15.383 6.22,-26.242 6.23,-9.547 6.22,2.071 6.23,-1.207 6.22,-5.133 6.23,5.176 6.22,8.394 6.23,-1.504 6.22,7.051 6.23,13.816"
         style="fill:none;stroke:#0072bd;stroke-width:15;stroke-linecap:butt;stroke-linejoin:round;stroke-miterlimit:10;stroke-dasharray:none;stroke-opacity:1"
         id="path5207"
         inkscape:connector-curvature="0" /><path
         d="m 2718.21,628.168 6.23,13.816 6.22,3.043 6.23,-11.464 6.22,-8.973 6.23,18.781 6.22,24.629 6.23,-5.707 6.22,-16.379 6.23,11.594 6.22,19.008 6.23,-12.625 6.22,-37.543 6.23,-20.559 6.22,3.512 6.23,2.332 6.22,-1.891 6.23,-3.691 6.22,4.859 6.23,-5.914 6.22,-2.523 6.23,1.636 6.22,0.418 6.23,-2.054 6.22,-0.907 6.23,0.907 12.44,0 6.22,-0.028 6.23,-1.328 6.22,1.356 6.23,-0.278 6.22,0.278 12.46,0 6.22,-0.098 6.22,0.098 62.25,0 6.23,-2.602 6.22,-2.676 6.23,-1.515 6.22,6.793 6.23,-12.711"
         style="fill:none;stroke:#0072bd;stroke-width:15;stroke-linecap:butt;stroke-linejoin:round;stroke-miterlimit:10;stroke-dasharray:none;stroke-opacity:1"
         id="path5209"
         inkscape:connector-curvature="0" /><path
         d="m 3029.45,602.473 6.23,-12.711 6.23,-11.871 6.22,-21.661 6.23,7.903 6.22,12.488 6.22,7.711 6.23,-8.039 6.22,-25.375 6.23,-3.344 6.22,20.731 6.23,5.34 6.22,-7.747 6.23,-6.277 6.23,18.102 6.22,21.66 6.22,-1.695 6.23,-7.985 6.22,1.985 6.23,0.632 6.22,3.891 6.22,3.644 6.23,2.618 6.22,-0.172 6.23,-2.153 6.22,2.325 6.23,2.086 6.22,-2.086 12.45,0 6.23,0.902 6.22,-0.902 24.9,0 6.23,0.84 6.22,-0.84 6.23,0.617 6.22,-0.024 6.23,-0.593 68.47,0"
         style="fill:none;stroke:#0072bd;stroke-width:15;stroke-linecap:butt;stroke-linejoin:round;stroke-miterlimit:10;stroke-dasharray:none;stroke-opacity:1"
         id="path5211"
         inkscape:connector-curvature="0" /><path
         d="m 3340.7,602.473 180.51,0 6.23,-0.524 6.22,0.524 6.23,-0.403 6.22,0.403 24.91,0 6.22,-0.289 6.22,0.289 74.7,0"
         style="fill:none;stroke:#0072bd;stroke-width:15;stroke-linecap:butt;stroke-linejoin:round;stroke-miterlimit:10;stroke-dasharray:none;stroke-opacity:1"
         id="path5213"
         inkscape:connector-curvature="0" /><path
         d="m 3651.94,602.473 87.14,0 6.22,-0.18 6.23,0.18 12.45,0 6.23,-2.52 6.22,2.52 6.23,0 6.22,-1.012 6.23,1.012 87.15,0 6.22,0.527 6.23,-0.527 74.7,0"
         style="fill:none;stroke:#0072bd;stroke-width:15;stroke-linecap:butt;stroke-linejoin:round;stroke-miterlimit:10;stroke-dasharray:none;stroke-opacity:1"
         id="path5215"
         inkscape:connector-curvature="0" /><path
         d="m 3963.18,602.473 317.46,0"
         style="fill:none;stroke:#0072bd;stroke-width:15;stroke-linecap:butt;stroke-linejoin:round;stroke-miterlimit:10;stroke-dasharray:none;stroke-opacity:1"
         id="path5217"
         inkscape:connector-curvature="0" /><path
         d="m 4274.42,602.473 93.37,0 6.23,-0.344 6.22,0.344 130.73,0 6.22,0.242 6.23,-0.242 68.46,0"
         style="fill:none;stroke:#0072bd;stroke-width:15;stroke-linecap:butt;stroke-linejoin:round;stroke-miterlimit:10;stroke-dasharray:none;stroke-opacity:1"
         id="path5219"
         inkscape:connector-curvature="0" /><path
         d="m 4585.66,602.473 136.95,0 6.23,0.195 6.22,-0.195 105.82,0 6.22,0.168 6.23,0.304 6.22,2.793 6.23,-1.515 6.22,4.281 6.23,3.894 6.22,5.922 6.23,2.446 6.22,-6.211 6.23,2.304"
         style="fill:none;stroke:#0072bd;stroke-width:15;stroke-linecap:butt;stroke-linejoin:round;stroke-miterlimit:10;stroke-dasharray:none;stroke-opacity:1"
         id="path5221"
         inkscape:connector-curvature="0" /><path
         d="m 4896.9,614.555 6.23,2.304 6.22,14.579 6.23,8.238 6.22,-2.524 6.23,-15.418 6.22,3.075 6.23,4.058 6.22,-0.156 6.23,-10.309 6.22,-10.789 6.23,1.649 6.22,-3.106 6.23,1.735 6.22,2.136 6.23,-5.761 6.22,-2.684 6.23,0.891 6.22,0.894 6.23,-0.039 6.22,-0.922 6.23,-0.293 6.22,0.36 12.45,0 6.23,-0.532 6.22,-0.031 6.23,0.563 18.67,0 6.23,0.722 6.22,-0.722 6.22,0 6.22,0.812 6.23,-0.812 56.02,0 6.23,-0.164 6.23,-1.532 6.22,0.828 6.23,-0.757 6.22,-4.395 6.22,-6.355 6.23,-7.957"
         style="fill:none;stroke:#0072bd;stroke-width:15;stroke-linecap:butt;stroke-linejoin:round;stroke-miterlimit:10;stroke-dasharray:none;stroke-opacity:1"
         id="path5223"
         inkscape:connector-curvature="0" /><path
         d="m 5208.14,590.098 6.23,-7.957 6.22,-2.188 6.23,4.836 6.22,6.246 6.23,-4.109 6.23,-9.449 6.22,-2.528 6.23,7.664 6.22,-0.922 6.22,-10.828 6.23,1.453 6.22,15.629 6.23,7.418 6.22,2.731 6.23,-0.946 6.23,1.696 6.22,-0.969 6.23,1.652 6.22,2.715 6.22,0.231 6.23,0 6.22,-1.379 6.23,1.379 6.22,1.855 6.23,-1.855 18.67,0 6.22,-0.043 6.23,0.043 18.67,0 6.23,-0.254 6.22,-0.426 6.23,0.68 6.22,0 6.23,-0.188 6.22,0.188 24.9,0 6.23,0.945 6.22,-0.867"
         style="fill:none;stroke:#0072bd;stroke-width:15;stroke-linecap:butt;stroke-linejoin:round;stroke-miterlimit:10;stroke-dasharray:none;stroke-opacity:1"
         id="path5225"
         inkscape:connector-curvature="0" /></g><path
       style="fill:none;fill-rule:evenodd;stroke:#000000;stroke-width:1.17812645;stroke-linecap:butt;stroke-linejoin:miter;stroke-miterlimit:4;stroke-dasharray:none;stroke-opacity:1;marker-start:url(#marker5165);marker-end:url(#Arrow1Mend)"
       d="m 140.43932,155.42082 136.20948,0"
       id="path5149-3"
       inkscape:connector-curvature="0" /><text
       xml:space="preserve"
       style="font-style:normal;font-weight:normal;font-size:16px;line-height:125%;font-family:Sans;text-align:center;letter-spacing:0px;word-spacing:0px;text-anchor:middle;fill:#000000;fill-opacity:1;stroke:none;stroke-width:1px;stroke-linecap:butt;stroke-linejoin:miter;stroke-opacity:1"
       x="206.89859"
       y="-145.06172"
       id="text6058"
       sodipodi:linespacing="125%"
       transform="scale(1,-1)"><tspan
         sodipodi:role="line"
         id="tspan6060"
         x="206.89859"
         y="-145.06172"
         style="font-size:12px;text-align:center;text-anchor:middle">Δt = 0.057s</tspan></text>
<path
       inkscape:connector-curvature="0"
       id="path5169-6"
       d="m 93.526113,66.27607 138.153287,0"
       style="fill:none;fill-rule:evenodd;stroke:#000000;stroke-width:1.18650293;stroke-linecap:butt;stroke-linejoin:miter;stroke-miterlimit:4;stroke-dasharray:none;stroke-opacity:1;marker-start:url(#marker5171);marker-end:url(#marker5175)" /><text
       sodipodi:linespacing="125%"
       id="text6070"
       y="-71.375916"
       x="162.44012"
       style="font-style:normal;font-weight:normal;font-size:16px;line-height:125%;font-family:Sans;text-align:center;letter-spacing:0px;word-spacing:0px;text-anchor:middle;fill:#000000;fill-opacity:1;stroke:none;stroke-width:1px;stroke-linecap:butt;stroke-linejoin:miter;stroke-opacity:1"
       xml:space="preserve"
       transform="scale(1,-1)"><tspan
         style="font-size:12px;text-align:center;text-anchor:middle"
         y="-71.375916"
         x="162.44012"
         id="tspan6072"
         sodipodi:role="line">Δt = 0.0575s</tspan></text>
</g></svg>